<svg xmlns="http://www.w3.org/2000/svg" viewBox="0 0 843.52 1355.45"><defs><style>.cls-1{fill:none;stroke:#fff;stroke-miterlimit:10;stroke-width:2px;}</style></defs><title>Asset 15</title><g id="Layer_2" data-name="Layer 2"><g id="Layer_1-2" data-name="Layer 1"><polygon class="cls-1" points="263.36 1092.09 98.79 1093.27 1.7 1353.75 262.18 1256.66 263.36 1092.09"/><circle class="cls-1" cx="194.45" cy="1244.98" r="4.28"/><circle class="cls-1" cx="194.45" cy="1244.98" r="6.95"/><circle class="cls-1" cx="44.32" cy="1311.13" r="4.28"/><circle class="cls-1" cx="44.32" cy="1311.13" r="6.95"/><circle class="cls-1" cx="110.78" cy="1161.31" r="4.28"/><circle class="cls-1" cx="110.78" cy="1161.31" r="6.95"/><circle class="cls-1" cx="237.32" cy="1118.14" r="4.28"/><circle class="cls-1" cx="237.32" cy="1118.14" r="6.95"/><circle class="cls-1" cx="242.14" cy="11.62" r="4.28"/><circle class="cls-1" cx="242.14" cy="11.62" r="6.95"/><circle class="cls-1" cx="119.04" cy="328.72" r="4.28"/><circle class="cls-1" cx="119.04" cy="328.72" r="6.95"/><circle class="cls-1" cx="436.65" cy="291.04" r="4.28"/><circle class="cls-1" cx="436.65" cy="291.04" r="6.95"/><circle class="cls-1" cx="282.66" cy="373.93" r="4.28"/><circle class="cls-1" cx="282.66" cy="373.93" r="6.95"/><path class="cls-1" d="M320.66,29.58C276.57-15.26,201.93-6,170,48.14,91.77,180.86-4.73,400.44,213.12,400.44,629.53,400.44,448.13,159.17,320.66,29.58Z"/><path class="cls-1" d="M302.36,40.58C270.09,7.77,215.47,14.52,192.1,54.16,134.85,151.29,64.23,312,223.66,312,528.39,312,395.64,135.42,302.36,40.58Z"/><circle class="cls-1" cx="820.62" cy="987.31" r="4.28"/><circle class="cls-1" cx="820.62" cy="987.31" r="6.95"/><circle class="cls-1" cx="750.58" cy="1059.47" r="4.28"/><circle class="cls-1" cx="750.58" cy="1059.47" r="6.95"/><circle class="cls-1" cx="382.57" cy="921.28" r="4.28"/><circle class="cls-1" cx="382.57" cy="921.28" r="6.95"/><circle class="cls-1" cx="501.09" cy="1039.56" r="4.28"/><circle class="cls-1" cx="501.09" cy="1039.56" r="6.95"/><path class="cls-1" d="M426.18,881.94,807,916.18A39,39,0,0,1,842.4,958c-4.6,57.74-39,157-225.78,130.53C485.52,1069.88,416,1015.36,379.19,966,352,929.39,380.78,877.86,426.18,881.94Z"/><path class="cls-1" d="M379.62,902S588.07,1081.28,841,957.07"/></g></g></svg>