<svg xmlns="http://www.w3.org/2000/svg" viewBox="0 0 818.7 1375.27"><defs><style>.cls-1{fill:none;stroke:#fff;stroke-miterlimit:10;stroke-width:2px;}</style></defs><title>Asset 14</title><g id="Layer_2" data-name="Layer 2"><g id="Layer_1-2" data-name="Layer 1"><path class="cls-1" d="M352.71,2.1a5.93,5.93,0,0,0-1.54-.46,6.79,6.79,0,0,0-1.31-.16c-50.51-6-125.23,44.94-98.34,101.75,10.73,22.67,38.39,36.15,62.54,27.62A49.37,49.37,0,0,0,341,107.76C347.7,95,346,81.92,344.86,68c-.85-10.56.33-18.74,6.81-27.32,3.84-5.1,8-9.94,9.63-16.26C363.55,15.73,361.75,5.23,352.71,2.1Z"/><path class="cls-1" d="M295.75,62.79A10.92,10.92,0,1,0,306.67,73.7,10.92,10.92,0,0,0,295.75,62.79Zm4.9,13.74-4.9,2.83-4.9-2.83V70.88l4.9-2.83,4.9,2.83Z"/><path class="cls-1" d="M315.21,25.25a3.47,3.47,0,0,0-1.74,2.17,2.79,2.79,0,0,0,1.94,3.41,3.47,3.47,0,0,0,2.81-.43C321.44,28.32,318.6,23.42,315.21,25.25Z"/><path class="cls-1" d="M722.75,922.67c-9.87-9.87-21.93-17.17-33.5-24.83-15.11-10-26.74-20.86-37.28-35.62-7.15-10-16-21.6-29.4-13.46-9.44,5.73-14.7,20.27-17.4,30.38-5.93,22.33-7,56.05,8.8,74.77,19.39,22.91,61.69,26.65,89,20.92,12.3-2.58,27.78-8.53,32.63-21.36C740.12,941.6,730.63,930.54,722.75,922.67Z"/><path class="cls-1" d="M646.19,915.39a10.92,10.92,0,1,0,10.92,10.92A10.91,10.91,0,0,0,646.19,915.39Zm4.9,13.75-4.9,2.82-4.89-2.82v-5.66l4.89-2.83,4.9,2.83Z"/><path class="cls-1" d="M207.35,571a34.25,34.25,0,0,0-18.2-1.42c-9.51,1.62-21.09,10.9-30,5.86-11.89-6.77-20.13-15.9-34.1-7.07-3.82,2.41-7,5.87-11,8-7,3.76-14.52,2.15-21.72-.18-8.42-2.73-16.22-5.85-25-2.52-17.46,6.66-20.11,26.46-17.35,42.59a5.32,5.32,0,0,0,.72,1.93c14,69.26,116.9,88.44,159.94,33.48C225.9,632.26,238.44,583.19,207.35,571Z"/><path class="cls-1" d="M104.26,613a10.92,10.92,0,1,0,10.92,10.91A10.9,10.9,0,0,0,104.26,613Zm4.9,13.74-4.9,2.83-4.9-2.83v-5.65l4.9-2.83,4.9,2.83Z"/><path class="cls-1" d="M163.25,613a10.92,10.92,0,1,0,10.91,10.91A10.91,10.91,0,0,0,163.25,613Zm4.89,13.74-4.89,2.83-4.9-2.83v-5.65l4.9-2.83,4.89,2.83Z"/><path class="cls-1" d="M767.81,488.9c-3.21-4-9.95-2.52-14.38-2.23a76.72,76.72,0,0,1-17.9-1.05c-4.55-.75-7.87.37-11.51,3.21s-2.69,5.73-1.6,9.69a30.77,30.77,0,0,0,6,12.1c5.33,6.18,14.25,8.53,22.08,6.68s14.31-8.1,17.37-15.51C769.5,497.83,770.78,492.57,767.81,488.9Z"/><path class="cls-1" d="M745.46,497.6a3.61,3.61,0,1,0,3.61,3.6A3.6,3.6,0,0,0,745.46,497.6Z"/><path class="cls-1" d="M470.3,1126.17c-3.22-4-9.95-2.51-14.38-2.23a76.15,76.15,0,0,1-17.9-1c-4.55-.75-7.87.38-11.52,3.22s-2.68,5.72-1.59,9.68a30.93,30.93,0,0,0,6,12.11c5.33,6.18,14.26,8.53,22.09,6.68s14.31-8.1,17.37-15.51C472,1135.11,473.26,1129.85,470.3,1126.17Z"/><path class="cls-1" d="M448,1134.88a3.61,3.61,0,1,0,3.6,3.6A3.61,3.61,0,0,0,448,1134.88Z"/><path class="cls-1" d="M743.76,1308.81c-3.22-4-10-2.51-14.38-2.23a76.24,76.24,0,0,1-17.91-1c-4.55-.75-7.86.37-11.51,3.22s-2.68,5.72-1.59,9.68a30.62,30.62,0,0,0,6,12.1c5.33,6.18,14.25,8.54,22.09,6.69s14.3-8.11,17.37-15.52C745.44,1317.74,746.72,1312.48,743.76,1308.81Z"/><path class="cls-1" d="M721.4,1317.51a3.61,3.61,0,1,0,3.61,3.61A3.61,3.61,0,0,0,721.4,1317.51Z"/><path class="cls-1" d="M815.93,55.29c-3.22-4-10-2.51-14.38-2.23A76.24,76.24,0,0,1,783.64,52c-4.55-.75-7.87.37-11.51,3.22s-2.68,5.72-1.59,9.68a30.66,30.66,0,0,0,6,12.11c5.33,6.18,14.25,8.53,22.08,6.68S812.91,75.59,816,68.19C817.61,64.23,818.89,59,815.93,55.29Z"/><path class="cls-1" d="M793.57,64a3.61,3.61,0,1,0,3.61,3.61A3.61,3.61,0,0,0,793.57,64Z"/><path class="cls-1" d="M47.33,924.47c-3.21-4-9.95-2.52-14.38-2.23a76.72,76.72,0,0,1-17.9-1c-4.55-.75-7.87.37-11.51,3.22S.86,930.13,2,934.09a30.62,30.62,0,0,0,6,12.1c5.33,6.18,14.25,8.53,22.08,6.68s14.31-8.1,17.37-15.51C49,933.4,50.3,928.14,47.33,924.47Z"/><path class="cls-1" d="M25,933.17a3.61,3.61,0,1,0,3.61,3.6A3.6,3.6,0,0,0,25,933.17Z"/><path class="cls-1" d="M522.67,137.39c-17.61-20.3-48-26.35-73.5-21.47-25.09,4.81-48.64,23.82-52.47,50.11-1.73,11.84,1.08,24.37,10.5,32.37,9.95,8.45,22.21,6.76,33.78,3.11,10.08-3.19,20.53-7.31,31.3-5.58,9.92,1.58,16.53,8.26,25.09,12.82,10.19,5.42,22.52,6.51,31.15-2.2a6,6,0,0,0,.87-1.13C543.2,186.23,537.42,154.39,522.67,137.39Z"/><path class="cls-1" d="M437.11,150A10.92,10.92,0,1,0,448,160.88,10.91,10.91,0,0,0,437.11,150ZM442,163.71l-4.89,2.83-4.9-2.83v-5.66l4.9-2.82,4.89,2.82Z"/><path class="cls-1" d="M497.75,150a10.92,10.92,0,1,0,10.92,10.91A10.9,10.9,0,0,0,497.75,150Zm4.9,13.74-4.9,2.83-4.9-2.83v-5.66l4.9-2.82,4.9,2.82Z"/><path class="cls-1" d="M242.62,1298.28c-.85-17.49-3.05-36.77-11.85-52.26-9.31-16.38-26.07-24.35-41.86-33.19a90.64,90.64,0,0,1-22.54-17.29c-5.4-5.74-10.52-10.14-18.33-12a6.47,6.47,0,0,0-1.34-.17.61.61,0,0,1-.13,0C113.86,1180,94.8,1215,111.63,1242c9.47,15.2,24.07,27.15,35.15,41.18a318.31,318.31,0,0,1,32.5,50.93c7.13,13.75,15.25,31.38,30.11,38.42,13.24,6.27,22.15-5.21,26.59-16.6C242.87,1338.26,243.53,1316.94,242.62,1298.28Z"/><path class="cls-1" d="M167.2,1233.91a10.92,10.92,0,1,0,10.92,10.92A10.92,10.92,0,0,0,167.2,1233.91Zm4.9,13.75-4.9,2.83-4.9-2.83V1242l4.9-2.83,4.9,2.83Z"/><path class="cls-1" d="M197.85,1278.83a10.92,10.92,0,1,0,10.92,10.92A10.91,10.91,0,0,0,197.85,1278.83Zm4.9,13.75-4.9,2.83-4.9-2.83v-5.66l4.9-2.83,4.9,2.83Z"/></g></g></svg>