<svg xmlns="http://www.w3.org/2000/svg" viewBox="0 0 806.02 1392.26"><defs><style>.cls-1{fill:none;stroke:#fff;stroke-miterlimit:10;stroke-width:2px;}</style></defs><title>Asset 16</title><g id="Layer_2" data-name="Layer 2"><g id="Layer_1-2" data-name="Layer 1"><path class="cls-1" d="M310.46,229c-32.47-.83-58.17,13.88-81.38,34.8-11.79,10.63-23.76,21.31-40.05,24.75-13,2.75-25.13.56-35.9-7.49-8.31-6.21-11.52-15.19-12.34-25-1.13-13.54-1-27.2-2.53-40.69-3.88-35.11-15.78-66.91-40.17-93.31-6.15-6.65-13.62-10.22-22.36-11.9C60.66,107.25,45.58,104.07,32,96.54c-12.63-7-23.16-16.08-28.15-30.47-10.22-29.46,8-59.73,38.93-64.24,24.74-3.61,45.58,4.74,63.94,20.7C114.08,28.93,121,35.87,129,41.47c17.58,12.23,37.61,17.74,58.35,21.17,26.59,4.39,53.47,5,80.24,3.25,24.49-1.62,48.43-7.34,72-14.42,21.07-6.35,42.39-11.91,62.66-20.71a24.33,24.33,0,0,1,5.53-1.51c8.43-1.46,13.23,3.82,10.27,11.8-5.75,15.47-11.31,31-14.5,47.19-10.65,54.07,2.66,101.24,41.19,141.06,5.29,5.47,10.84,10.95,13.6,18.33,2.91,7.78-.57,12.55-8.87,11.94-6.37-.47-12.17-3.27-18.14-5.31-17.4-5.94-34.57-12.72-52.65-16.33C356.13,233.42,333.46,229.6,310.46,229Z"/><circle class="cls-1" cx="232.77" cy="149.26" r="7.22"/><circle class="cls-1" cx="232.77" cy="149.26" r="11.73"/><circle class="cls-1" cx="100.4" cy="74.56" r="4.92"/><circle class="cls-1" cx="100.4" cy="74.56" r="7.99"/><circle class="cls-1" cx="389.63" cy="55.68" r="4.92"/><circle class="cls-1" cx="389.63" cy="55.68" r="7.99"/><circle class="cls-1" cx="420.58" cy="228.86" r="4.92"/><circle class="cls-1" cx="420.58" cy="228.86" r="7.99"/><path class="cls-1" d="M614,399.18c-27.73-16.92-57.35-17-87.89-10.41-15.52,3.33-31.23,6.63-47.06,1.49-12.65-4.11-22.06-12-27.39-24.4-4.11-9.52-2.41-18.9,1.76-27.79,5.77-12.3,12.66-24.1,18.09-36.54,14.14-32.37,19.67-65.86,11.69-100.91-2-8.83-6.71-15.65-13.45-21.46-11.61-10-23.1-20.31-31.11-33.61-7.45-12.37-12.06-25.48-9.21-40.45,5.82-30.63,36.72-47.77,65.77-36.27,23.24,9.2,37.15,26.83,45.11,49.82,3.19,9.21,5.69,18.66,9.87,27.52,9.14,19.37,23.76,34.13,40,47.44,20.87,17.07,43.86,31,67.94,42.82,22,10.81,45.64,17.79,69.58,23.39,21.43,5,42.69,10.81,64.65,13.29a24.52,24.52,0,0,1,5.55,1.44c8,2.95,9.56,9.92,3,15.36-12.69,10.54-25.26,21.23-36.09,33.67-36.19,41.56-48.17,89.09-34.62,142.82,1.86,7.38,3.94,14.89,2.65,22.67-1.36,8.19-6.75,10.59-13.64,5.92-5.28-3.58-8.92-8.89-13.08-13.64-12.12-13.82-23.63-28.26-37.49-40.41C651.36,425.8,633.62,411.19,614,399.18Z"/><circle class="cls-1" cx="586.38" cy="291.35" r="7.22"/><circle class="cls-1" cx="586.38" cy="291.35" r="11.73"/><circle class="cls-1" cx="508.88" cy="160.6" r="4.92"/><circle class="cls-1" cx="508.88" cy="160.6" r="7.99"/><circle class="cls-1" cx="769.01" cy="288.43" r="4.92"/><circle class="cls-1" cx="769.01" cy="288.43" r="7.99"/><circle class="cls-1" cx="709.5" cy="453.98" r="4.92"/><circle class="cls-1" cx="709.5" cy="453.98" r="7.99"/><path class="cls-1" d="M409.27,744.83C395,774,397.63,803.5,407,833.31c4.74,15.15,9.46,30.49,5.8,46.72-2.93,13-10,23.08-21.78,29.52-9.1,5-18.61,4.13-27.84.8-12.78-4.62-25.16-10.4-38-14.66-33.53-11.12-67.39-13.55-101.56-2.38-8.61,2.81-15,8.11-20.14,15.35-8.92,12.49-18.11,24.87-30.61,34.07-11.64,8.56-24.27,14.35-39.43,12.89-31-3-50.95-32.19-42.16-62.17,7-24,23.31-39.45,45.47-49.49,8.88-4,18.06-7.38,26.5-12.36,18.45-10.87,31.81-26.78,43.57-44.2,15.08-22.35,26.85-46.52,36.41-71.58,8.74-22.94,13.52-47.08,16.9-71.44,3-21.8,6.85-43.5,7.3-65.59a24.43,24.43,0,0,1,.93-5.66c2.19-8.27,9-10.43,15-4.41,11.66,11.67,23.47,23.21,36.85,32.85,44.7,32.22,93.13,39.79,145.39,21.37,7.17-2.53,14.47-5.29,22.33-4.72,8.28.6,11.17,5.75,7.15,13-3.08,5.59-8,9.7-12.38,14.28-12.66,13.33-26,26.11-36.8,41C432.35,705.18,419.42,724.19,409.27,744.83Z"/><circle class="cls-1" cx="304.42" cy="782.22" r="7.22"/><circle class="cls-1" cx="304.42" cy="782.22" r="11.73"/><circle class="cls-1" cx="181.34" cy="871.4" r="4.92"/><circle class="cls-1" cx="181.34" cy="871.4" r="7.99"/><circle class="cls-1" cx="284.76" cy="600.63" r="4.92"/><circle class="cls-1" cx="284.76" cy="600.63" r="7.99"/><circle class="cls-1" cx="455.07" cy="644.7" r="4.92"/><circle class="cls-1" cx="455.07" cy="644.7" r="7.99"/><path class="cls-1" d="M477.49,1212.84c14.05-29.29,11.14-58.77,1.56-88.5-4.87-15.11-9.73-30.41-6.2-46.67,2.82-13,9.77-23.16,21.53-29.7,9.06-5,18.57-4.29,27.83-1,12.82,4.51,25.25,10.18,38.17,14.34,33.62,10.83,67.5,13,101.57,1.53,8.59-2.89,14.9-8.25,20-15.53,8.82-12.57,17.89-25,30.32-34.33,11.56-8.65,24.15-14.55,39.32-13.21,31.06,2.73,51.22,31.75,42.68,61.8-6.83,24-23,39.65-45,49.88-8.85,4.09-18,7.53-26.4,12.58-18.35,11-31.57,27-43.19,44.57-14.89,22.47-26.46,46.74-35.8,71.88-8.55,23-13.13,47.2-16.3,71.58-2.83,21.82-6.48,43.56-6.75,65.65a24.26,24.26,0,0,1-.88,5.66c-2.12,8.3-8.91,10.51-15,4.54-11.76-11.57-23.66-23-37.13-32.54-45-31.84-93.46-39-145.56-20.14-7.15,2.59-14.43,5.41-22.29,4.91-8.28-.53-11.22-5.65-7.26-13,3-5.61,8-9.77,12.26-14.38,12.54-13.44,25.76-26.34,36.45-41.35C454.75,1252.68,467.51,1233.57,477.49,1212.84Z"/><circle class="cls-1" cx="582.01" cy="1174.57" r="7.22"/><circle class="cls-1" cx="582.01" cy="1174.57" r="11.73"/><circle class="cls-1" cx="704.34" cy="1084.36" r="4.92"/><circle class="cls-1" cx="704.34" cy="1084.36" r="7.99"/><circle class="cls-1" cx="603.21" cy="1355.99" r="4.92"/><circle class="cls-1" cx="603.21" cy="1355.99" r="7.99"/><circle class="cls-1" cx="432.54" cy="1313.35" r="4.92"/><circle class="cls-1" cx="432.54" cy="1313.35" r="7.99"/></g></g></svg>